# xmcd CD database file
#
# Track frame offsets:
#	150
#	15174
#	28959
#	48600
#	62588
#	78764
#	95115
#	111679
#	128046
#	135401
#	150957
#	166485
#	191239
#	199710
#
# Disc length: 2984 seconds
#
# Revision: 0
# Processed by: cddbd v1.5.1PL2 Copyright (c) Steve Scherf et al.
# Submitted via: CDex 1.50
#
DISCID=b90ba60e
DTITLE=Harrison Kennedy - Voice and Story
DYEAR=2005
DGENRE=Blues
TTITLE0=Bad Luck and Trouble
TTITLE1=What A Way To Go
TTITLE2=Bad Attitude
TTITLE3=One Track Mind
TTITLE4=40 Acres And A Mule
TTITLE5=Too Far To Fall
TTITLE6=Bob Io Island
TTITLE7=There Ain't No Words
TTITLE8=Recipe For Loving
TTITLE9=Hummin' Blues
TTITLE10=Going Down
TTITLE11=It's Hard
TTITLE12=Let Her Talk
TTITLE13=Make A Difference
EXTD=YEAR: 2005
EXTT0=
EXTT1=
EXTT2=
EXTT3=
EXTT4=
EXTT5=
EXTT6=
EXTT7=
EXTT8=
EXTT9=
EXTT10=
EXTT11=
EXTT12=
EXTT13=
PLAYORDER=
